<svg xmlns="http://www.w3.org/2000/svg" width="96" height="96" viewBox="0 0 96 96">
<ellipse cx="48" cy="88" rx="22" ry="5" fill="rgba(0,0,0,0.1)"/>
<polygon points="48,10 72,35 68,80 28,80 24,35" fill="#5ABED4" stroke="#3A8EA4" stroke-width="2" opacity="0.85"/>
<polygon points="48,15 65,35 62,75 34,75 31,35" fill="#7DD4E8" opacity="0.6"/>
<polygon points="38,30 30,15 25,35" fill="#5ABED4" stroke="#3A8EA4" stroke-width="1.5"/>
<polygon points="58,30 66,15 71,35" fill="#5ABED4" stroke="#3A8EA4" stroke-width="1.5"/>
<circle cx="40" cy="40" r="5" fill="#1B4A5A"/>
<circle cx="56" cy="40" r="5" fill="#1B4A5A"/>
<circle cx="40" cy="40" r="3" fill="#4ECDC4"/>
<circle cx="56" cy="40" r="3" fill="#4ECDC4"/>
<path d="M42,55 L48,58 L54,55" fill="none" stroke="#1B4A5A" stroke-width="2"/>
<line x1="35" y1="50" x2="30" y2="48" stroke="#7DD4E8" stroke-width="1" opacity="0.5"/>
<line x1="61" y1="50" x2="66" y2="48" stroke="#7DD4E8" stroke-width="1" opacity="0.5"/>
<polygon points="30,80 35,90 25,90" fill="#5ABED4" stroke="#3A8EA4" stroke-width="1"/>
<polygon points="66,80 71,90 61,90" fill="#5ABED4" stroke="#3A8EA4" stroke-width="1"/>
</svg>