<svg xmlns="http://www.w3.org/2000/svg" width="96" height="96" viewBox="0 0 96 96">
<ellipse cx="48" cy="80" rx="30" ry="8" fill="rgba(0,0,0,0.1)"/>
<ellipse cx="48" cy="60" rx="22" ry="25" fill="#8B9DAF" stroke="#5A6B7D" stroke-width="1.5"/>
<ellipse cx="48" cy="62" rx="16" ry="18" fill="#C4CDD6"/>
<circle cx="38" cy="48" r="6" fill="white"/>
<circle cx="58" cy="48" r="6" fill="white"/>
<circle cx="40" cy="48" r="4" fill="#1A1A2E"/>
<circle cx="60" cy="48" r="4" fill="#1A1A2E"/>
<circle cx="41" cy="47" r="1.5" fill="white"/>
<circle cx="61" cy="47" r="1.5" fill="white"/>
<ellipse cx="48" cy="56" rx="4" ry="3" fill="#2C3E50"/>
<line x1="28" y1="54" x2="18" y2="51" stroke="#5A6B7D" stroke-width="1" opacity="0.6"/>
<line x1="28" y1="57" x2="18" y2="57" stroke="#5A6B7D" stroke-width="1" opacity="0.6"/>
<line x1="28" y1="60" x2="18" y2="63" stroke="#5A6B7D" stroke-width="1" opacity="0.6"/>
<line x1="68" y1="54" x2="78" y2="51" stroke="#5A6B7D" stroke-width="1" opacity="0.6"/>
<line x1="68" y1="57" x2="78" y2="57" stroke="#5A6B7D" stroke-width="1" opacity="0.6"/>
<line x1="68" y1="60" x2="78" y2="63" stroke="#5A6B7D" stroke-width="1" opacity="0.6"/>
<ellipse cx="34" cy="78" rx="10" ry="5" fill="#7A8B9D" stroke="#5A6B7D" stroke-width="1"/>
<ellipse cx="62" cy="78" rx="10" ry="5" fill="#7A8B9D" stroke="#5A6B7D" stroke-width="1"/>
</svg>