<svg xmlns="http://www.w3.org/2000/svg" width="96" height="96" viewBox="0 0 96 96">
<ellipse cx="48" cy="85" rx="25" ry="5" fill="rgba(0,0,0,0.1)"/>
<path d="M20,75 Q15,55 30,70 Q45,80 65,80 Q80,80 85,70 Q75,85 48,85 Q20,85 20,75" fill="#E87040" stroke="#C65A30" stroke-width="1"/>
<ellipse cx="48" cy="60" rx="20" ry="22" fill="#E87040" stroke="#C65A30" stroke-width="1.5"/>
<ellipse cx="48" cy="63" rx="14" ry="14" fill="#FFF5EE"/>
<polygon points="32,25 25,5 40,20" fill="#E87040" stroke="#C65A30" stroke-width="1"/>
<polygon points="32,25 27,10 35,18" fill="#FFB088"/>
<polygon points="64,25 71,5 56,20" fill="#E87040" stroke="#C65A30" stroke-width="1"/>
<polygon points="64,25 69,10 61,18" fill="#FFB088"/>
<ellipse cx="48" cy="42" rx="20" ry="18" fill="#E87040" stroke="#C65A30" stroke-width="1.5"/>
<ellipse cx="48" cy="44" rx="12" ry="10" fill="#FFF5EE"/>
<circle cx="40" cy="38" r="4" fill="#2C3E50"/>
<circle cx="56" cy="38" r="4" fill="#2C3E50"/>
<circle cx="41" cy="37" r="1.5" fill="white"/>
<circle cx="57" cy="37" r="1.5" fill="white"/>
<polygon points="44,47 48,50 52,47" fill="#2C3E50"/>
<path d="M14,70 Q8,60 5,72" fill="#FFF5EE" stroke="#E8D5C4" stroke-width="1"/>
</svg>