<svg xmlns="http://www.w3.org/2000/svg" width="96" height="96" viewBox="0 0 96 96">
<ellipse cx="48" cy="88" rx="25" ry="5" fill="rgba(0,0,0,0.1)"/>
<circle cx="48" cy="72" r="22" fill="#F8F8FF" stroke="#D4D4D4" stroke-width="1.5"/>
<circle cx="48" cy="44" r="17" fill="#F8F8FF" stroke="#D4D4D4" stroke-width="1.5"/>
<circle cx="48" cy="22" r="13" fill="#F8F8FF" stroke="#D4D4D4" stroke-width="1.5"/>
<rect x="38" y="5" width="20" height="14" rx="2" fill="#2C3E50"/>
<rect x="35" y="14" width="26" height="4" rx="1" fill="#2C3E50"/>
<circle cx="42" cy="20" r="2.5" fill="#2C3E50"/>
<circle cx="54" cy="20" r="2.5" fill="#2C3E50"/>
<polygon points="48,25 58,28 48,31" fill="#F5A623" stroke="#D4912A" stroke-width="0.5"/>
<path d="M42,33 Q48,37 54,33" fill="none" stroke="#2C3E50" stroke-width="1.5"/>
<circle cx="48" cy="40" r="2" fill="#2C3E50"/>
<circle cx="48" cy="48" r="2" fill="#2C3E50"/>
<circle cx="48" cy="65" r="2.5" fill="#2C3E50"/>
<circle cx="48" cy="74" r="2.5" fill="#2C3E50"/>
<line x1="30" y1="42" x2="10" y2="32" stroke="#8B6914" stroke-width="2.5" stroke-linecap="round"/>
<line x1="10" y1="32" x2="5" y2="28" stroke="#8B6914" stroke-width="1.5" stroke-linecap="round"/>
<line x1="10" y1="32" x2="8" y2="26" stroke="#8B6914" stroke-width="1.5" stroke-linecap="round"/>
<line x1="66" y1="42" x2="86" y2="32" stroke="#8B6914" stroke-width="2.5" stroke-linecap="round"/>
<line x1="86" y1="32" x2="91" y2="28" stroke="#8B6914" stroke-width="1.5" stroke-linecap="round"/>
<line x1="86" y1="32" x2="88" y2="26" stroke="#8B6914" stroke-width="1.5" stroke-linecap="round"/>
<path d="M36,14 Q48,20 60,14" fill="none" stroke="#E74C3C" stroke-width="3"/>
</svg>