<svg xmlns="http://www.w3.org/2000/svg" width="96" height="96" viewBox="0 0 96 96">
<ellipse cx="48" cy="85" rx="28" ry="6" fill="rgba(0,0,0,0.1)"/>
<ellipse cx="48" cy="62" rx="26" ry="28" fill="#F0F0F0" stroke="#D4D4D4" stroke-width="1.5"/>
<ellipse cx="48" cy="65" rx="18" ry="18" fill="#FAFAFA"/>
<circle cx="30" cy="22" r="10" fill="#F0F0F0" stroke="#D4D4D4" stroke-width="1"/>
<circle cx="30" cy="22" r="6" fill="#E8D5D5"/>
<circle cx="66" cy="22" r="10" fill="#F0F0F0" stroke="#D4D4D4" stroke-width="1"/>
<circle cx="66" cy="22" r="6" fill="#E8D5D5"/>
<ellipse cx="48" cy="38" rx="22" ry="20" fill="#F0F0F0" stroke="#D4D4D4" stroke-width="1.5"/>
<circle cx="39" cy="34" r="4" fill="#2C3E50"/>
<circle cx="57" cy="34" r="4" fill="#2C3E50"/>
<circle cx="40" cy="33" r="1.5" fill="white"/>
<circle cx="58" cy="33" r="1.5" fill="white"/>
<ellipse cx="48" cy="42" rx="5" ry="4" fill="#2C3E50"/>
<path d="M43,48 Q48,53 53,48" fill="none" stroke="#2C3E50" stroke-width="1.5"/>
<ellipse cx="30" cy="75" rx="10" ry="8" fill="#F0F0F0" stroke="#D4D4D4" stroke-width="1"/>
<ellipse cx="66" cy="75" rx="10" ry="8" fill="#F0F0F0" stroke="#D4D4D4" stroke-width="1"/>
</svg>