<svg xmlns="http://www.w3.org/2000/svg" width="1440" height="900" viewBox="0 0 1440 900">
<defs>
<linearGradient id="skyG" x1="0%" y1="0%" x2="0%" y2="100%"><stop offset="0%" stop-color="#0F1923"/><stop offset="40%" stop-color="#1A3A5A"/><stop offset="100%" stop-color="#2D5A7A"/></linearGradient>
<radialGradient id="auroraG" cx="50%" cy="20%"><stop offset="0%" stop-color="#4ECDC4" stop-opacity="0.3"/><stop offset="50%" stop-color="#9F7AEA" stop-opacity="0.15"/><stop offset="100%" stop-color="transparent"/></radialGradient>
</defs>
<rect width="1440" height="900" fill="url(#skyG)"/>
<ellipse cx="720" cy="150" rx="600" ry="200" fill="url(#auroraG)"/>
<circle cx="200" cy="120" r="1.5" fill="white" opacity="0.7"/>
<circle cx="400" cy="80" r="1" fill="white" opacity="0.6"/>
<circle cx="600" cy="150" r="1.2" fill="white" opacity="0.5"/>
<circle cx="900" cy="60" r="1.5" fill="white" opacity="0.8"/>
<circle cx="1100" cy="130" r="1" fill="white" opacity="0.6"/>
<circle cx="1300" cy="90" r="1.3" fill="white" opacity="0.7"/>
<circle cx="150" cy="200" r="0.8" fill="white" opacity="0.4"/>
<circle cx="750" cy="50" r="1" fill="white" opacity="0.5"/>
<circle cx="1050" cy="180" r="0.8" fill="white" opacity="0.4"/>
<path d="M0,700 Q200,620 400,680 Q600,730 800,660 Q1000,600 1200,670 Q1350,710 1440,680 L1440,900 L0,900 Z" fill="#E8F0F8" opacity="0.9"/>
<path d="M0,720 Q300,680 600,720 Q900,760 1200,700 Q1350,680 1440,710 L1440,900 L0,900 Z" fill="#F0F4F8"/>
<path d="M200,650 L280,580 L360,650" fill="#D4E4F0" stroke="#C4D4E0" stroke-width="1" opacity="0.8"/>
<path d="M500,670 L560,610 L620,670" fill="#C4D4E0" stroke="#B4C4D0" stroke-width="1" opacity="0.7"/>
<path d="M900,640 L1000,550 L1100,640" fill="#D4E4F0" stroke="#C4D4E0" stroke-width="1" opacity="0.6"/>
<rect x="650" y="720" width="50" height="35" rx="20" fill="#D4ECF8" stroke="#C4DCE8" stroke-width="1"/>
<rect x="665" y="710" width="20" height="15" rx="10" fill="#D4ECF8"/>
<circle cx="680" cy="718" r="4" fill="#2D5A7A" opacity="0.3"/>
</svg>