<svg xmlns="http://www.w3.org/2000/svg" width="128" height="128" viewBox="0 0 128 128">
<defs></defs>
<g transform="scale(-1,1) translate(-128,0)" transform="translate(0,-0.0) rotate(0,64,64)">
  <!-- Shadow -->
  <ellipse cx="62" cy="112" rx="25" ry="6" fill="rgba(0,0,0,0.15)"/>

  <!-- Cape/back accessories -->
  <path d="M45,45 L40,95 Q62,100 85,95 L80,45" fill="#8B0000" opacity="0.7"/>

  <!-- Body -->
  <ellipse cx="62" cy="70" rx="24" ry="28" fill="#DAA520" stroke="#2D3748" stroke-width="2"/>
  <ellipse cx="62" cy="72" rx="16" ry="20" fill="#FFF8DC"/>

  <!-- Flippers -->
  <ellipse cx="36" cy="62" rx="8" ry="16" fill="#DAA520" stroke="#2D3748" stroke-width="1.5" transform="rotate(-10,36,62)"/>
  
  <line x1="40" y1="52" x2="25" y2="30" stroke="#DAA520" stroke-width="6" stroke-linecap="round"/>
        <line x1="85" y1="52" x2="100" y2="30" stroke="#DAA520" stroke-width="6" stroke-linecap="round"/>
  

  <!-- Head -->
  <ellipse cx="62" cy="35" rx="22" ry="20" fill="#DAA520" stroke="#2D3748" stroke-width="2"/>
        <ellipse cx="65" cy="38" rx="13" ry="11" fill="#FFF8DC"/>
        <circle cx="70" cy="28" r="5.5" fill="white"/>
        <circle cx="71" cy="28" r="3.5" fill="#1A1A2E"/>
        <circle cx="72" cy="27" r="1.2" fill="white"/>
        <polygon points="80,33 92,36 80,39" fill="#F5A623" stroke="#D4912A" stroke-width="0.5"/>

  <!-- Front accessories -->
  

  <!-- Stars overlay for galaxy skin -->
  

  <!-- Feet -->
  <ellipse cx="52" cy="98" rx="10" ry="5" fill="#8B4513" stroke="#2D3748" stroke-width="1"/>
  <ellipse cx="72" cy="98" rx="10" ry="5" fill="#8B4513" stroke="#2D3748" stroke-width="1"/>
</g>
</svg>