<svg xmlns="http://www.w3.org/2000/svg" width="128" height="128" viewBox="0 0 128 128">
<defs><linearGradient id="rainbowGrad" x1="0%" y1="0%" x2="0%" y2="100%">
            <stop offset="0%" style="stop-color:#FF0000"/>
            <stop offset="17%" style="stop-color:#FF7F00"/>
            <stop offset="33%" style="stop-color:#FFFF00"/>
            <stop offset="50%" style="stop-color:#00FF00"/>
            <stop offset="67%" style="stop-color:#0000FF"/>
            <stop offset="83%" style="stop-color:#4B0082"/>
            <stop offset="100%" style="stop-color:#9400D3"/>
        </linearGradient></defs>
<g transform="scale(-1,1) translate(-128,0)" transform="translate(0,3.0) rotate(0,64,64)">
  <!-- Shadow -->
  <ellipse cx="62" cy="112" rx="25" ry="6" fill="rgba(0,0,0,0.15)"/>

  <!-- Cape/back accessories -->
  

  <!-- Body -->
  <ellipse cx="62" cy="70" rx="24" ry="28" fill="url(#rainbowGrad)" stroke="#2D3748" stroke-width="2"/>
  <ellipse cx="62" cy="72" rx="16" ry="20" fill="#FFFFFF"/>

  <!-- Flippers -->
  <ellipse cx="36" cy="62" rx="8" ry="16" fill="url(#rainbowGrad)" stroke="#2D3748" stroke-width="1.5" transform="rotate(-10,36,62)"/>
  <ellipse cx="88" cy="62" rx="8" ry="16" fill="url(#rainbowGrad)" stroke="#2D3748" stroke-width="1.5" transform="rotate(10,88,62)"/>
  
  

  <!-- Head -->
  <ellipse cx="62" cy="35" rx="22" ry="20" fill="url(#rainbowGrad)" stroke="#2D3748" stroke-width="2"/>
        <ellipse cx="65" cy="38" rx="13" ry="11" fill="#FFFFFF"/>
        <circle cx="70" cy="28" r="5.5" fill="white"/>
        <circle cx="71" cy="28" r="3.5" fill="#1A1A2E"/>
        <circle cx="72" cy="27" r="1.2" fill="white"/>
        <polygon points="80,33 92,36 80,39" fill="#F5A623" stroke="#D4912A" stroke-width="0.5"/>

  <!-- Front accessories -->
  

  <!-- Stars overlay for galaxy skin -->
  

  <!-- Feet -->
  <ellipse cx="52" cy="98" rx="10" ry="5" fill="#F5A623" stroke="#2D3748" stroke-width="1"/>
  <ellipse cx="72" cy="98" rx="10" ry="5" fill="#F5A623" stroke="#2D3748" stroke-width="1"/>
</g>
</svg>