<svg xmlns="http://www.w3.org/2000/svg" width="80" height="80" viewBox="0 0 80 80">
<defs>
    
    <filter id="gray"><feColorMatrix type="saturate" values="0"/></filter>
    <clipPath id="thumbClip"><rect width="80" height="80" rx="12"/></clipPath>
</defs>
<g clip-path="url(#thumbClip)">
    <rect width="80" height="80" rx="12" fill="#1A2A3A"/>
    <g filter='url(#gray)'>
        <!-- Body peek -->
        <ellipse cx="40" cy="65" rx="22" ry="20" fill="#4A90D9"/>
        <ellipse cx="40" cy="67" rx="14" ry="14" fill="#FFFFFF"/>
        <!-- Head -->
        <ellipse cx="40" cy="35" rx="24" ry="22" fill="#4A90D9" stroke="#2D3748" stroke-width="1.5"/>
        <ellipse cx="40" cy="38" rx="15" ry="13" fill="#FFFFFF"/>
        <!-- Eyes -->
        <circle cx="32" cy="30" r="5" fill="white"/>
        <circle cx="48" cy="30" r="5" fill="white"/>
        <circle cx="33" cy="30" r="3" fill="#1A1A2E"/>
        <circle cx="49" cy="30" r="3" fill="#1A1A2E"/>
        <circle cx="34" cy="29" r="1" fill="white"/>
        <circle cx="50" cy="29" r="1" fill="white"/>
        <!-- Beak -->
        <path d="M35,39 L40,44 L45,39" fill="#F5A623" stroke="#D4912A" stroke-width="0.5"/>
    </g>
    <rect width="80" height="80" rx="12" fill="rgba(0,0,0,0.4)"/>
        <g transform="translate(28,22)">
            <rect x="4" y="14" width="16" height="14" rx="2" fill="white" opacity="0.9"/>
            <path d="M7,14 V10 Q7,4 12,4 Q17,4 17,10 V14" fill="none" stroke="white" stroke-width="2.5" opacity="0.9"/>
            <circle cx="12" cy="21" r="2" fill="#666"/>
        </g>
</g>
</svg>