<svg xmlns="http://www.w3.org/2000/svg" width="128" height="128" viewBox="0 0 128 128">
<defs></defs>
<g  transform="translate(0,-16) rotate(0,64,64)">
  <!-- Shadow -->
  <ellipse cx="62" cy="112" rx="25" ry="6" fill="rgba(0,0,0,0.15)"/>

  <!-- Cape/back accessories -->
  

  <!-- Body -->
  <ellipse cx="62" cy="70" rx="24" ry="28" fill="#4A90D9" stroke="#2D3748" stroke-width="2"/>
  <ellipse cx="62" cy="72" rx="16" ry="20" fill="#FFFFFF"/>

  <!-- Flippers -->
  <ellipse cx="36" cy="62" rx="8" ry="16" fill="#4A90D9" stroke="#2D3748" stroke-width="1.5" transform="rotate(-10,36,62)"/>
  <ellipse cx="88" cy="62" rx="8" ry="16" fill="#4A90D9" stroke="#2D3748" stroke-width="1.5" transform="rotate(10,88,62)"/>
  
  

  <!-- Head -->
  <ellipse cx="62" cy="35" rx="22" ry="20" fill="#4A90D9" stroke="#2D3748" stroke-width="2"/>

  <!-- Front accessories -->
  <path d="M45,42 Q62,48 80,42 L78,48 Q62,54 47,48 Z" fill="#E74C3C" opacity="0.9"/>
        <rect x="75" y="42" width="6" height="16" rx="2" fill="#E74C3C" opacity="0.9"/>

  <!-- Stars overlay for galaxy skin -->
  

  <!-- Feet -->
  <ellipse cx="52" cy="98" rx="10" ry="5" fill="#F5A623" stroke="#2D3748" stroke-width="1"/>
  <ellipse cx="72" cy="98" rx="10" ry="5" fill="#F5A623" stroke="#2D3748" stroke-width="1"/>
</g>
</svg>