<svg xmlns="http://www.w3.org/2000/svg" width="128" height="128" viewBox="0 0 128 128">
<defs></defs>
<g transform="scale(-1,1) translate(-128,0)" transform="translate(0,3.0) rotate(0,64,64)">
  <!-- Shadow -->
  <ellipse cx="62" cy="112" rx="25" ry="6" fill="rgba(0,0,0,0.15)"/>

  <!-- Cape/back accessories -->
  

  <!-- Body -->
  <ellipse cx="62" cy="70" rx="24" ry="28" fill="#1B1464" stroke="#2D3748" stroke-width="2"/>
  <ellipse cx="62" cy="72" rx="16" ry="20" fill="#2D1B69"/>

  <!-- Flippers -->
  <ellipse cx="36" cy="62" rx="8" ry="16" fill="#1B1464" stroke="#2D3748" stroke-width="1.5" transform="rotate(-10,36,62)"/>
  <ellipse cx="88" cy="62" rx="8" ry="16" fill="#1B1464" stroke="#2D3748" stroke-width="1.5" transform="rotate(10,88,62)"/>
  
  

  <!-- Head -->
  <ellipse cx="62" cy="35" rx="22" ry="20" fill="#1B1464" stroke="#2D3748" stroke-width="2"/>
        <ellipse cx="65" cy="38" rx="13" ry="11" fill="#2D1B69"/>
        <circle cx="70" cy="28" r="5.5" fill="white"/>
        <circle cx="71" cy="28" r="3.5" fill="#E8D5F5"/>
        <circle cx="72" cy="27" r="1.2" fill="white"/>
        <polygon points="80,33 92,36 80,39" fill="#9F7AEA" stroke="#D4912A" stroke-width="0.5"/>

  <!-- Front accessories -->
  <circle cx="50" cy="50" r="2" fill="#E8D5F5" opacity="0.8"/>
        <circle cx="75" cy="60" r="1.5" fill="#FFD700" opacity="0.7"/>
        <circle cx="55" cy="70" r="1" fill="#E8D5F5" opacity="0.6"/>
        <circle cx="70" cy="45" r="1.5" fill="#9F7AEA" opacity="0.8"/>
        <circle cx="60" cy="80" r="2" fill="#FFD700" opacity="0.5"/>

  <!-- Stars overlay for galaxy skin -->
  <circle cx="50" cy="50" r="2" fill="#E8D5F5" opacity="0.8"/>
        <circle cx="75" cy="60" r="1.5" fill="#FFD700" opacity="0.7"/>
        <circle cx="55" cy="70" r="1" fill="#E8D5F5" opacity="0.6"/>
        <circle cx="70" cy="45" r="1.5" fill="#9F7AEA" opacity="0.8"/>
        <circle cx="60" cy="80" r="2" fill="#FFD700" opacity="0.5"/>

  <!-- Feet -->
  <ellipse cx="52" cy="98" rx="10" ry="5" fill="#4A3A8A" stroke="#2D3748" stroke-width="1"/>
  <ellipse cx="72" cy="98" rx="10" ry="5" fill="#4A3A8A" stroke="#2D3748" stroke-width="1"/>
</g>
</svg>