<svg xmlns="http://www.w3.org/2000/svg" viewBox="0 0 64 64" shape-rendering="crispEdges">
  <!-- Crown -->
  <rect x="28" y="4" width="8" height="4" fill="#ffa500"/>
  <rect x="24" y="8" width="4" height="4" fill="#ffa500"/>
  <rect x="36" y="8" width="4" height="4" fill="#ffa500"/>
  <rect x="20" y="12" width="4" height="4" fill="#ffa500"/>
  <rect x="40" y="12" width="4" height="4" fill="#ffa500"/>
  
  <!-- Body -->
  <rect x="16" y="16" width="32" height="36" fill="#ff4a4a"/>
  <rect x="20" y="20" width="24" height="28" fill="#ff5a5a"/>
  
  <!-- Eyes -->
  <rect x="22" y="24" width="8" height="8" fill="#ffffff"/>
  <rect x="34" y="24" width="8" height="8" fill="#ffffff"/>
  <rect x="24" y="26" width="4" height="4" fill="#202030"/>
  <rect x="36" y="26" width="4" height="4" fill="#202030"/>
  
  <!-- Eyebrows (angry) -->
  <rect x="22" y="22" width="8" height="2" fill="#202030"/>
  <rect x="34" y="22" width="8" height="2" fill="#202030"/>
  
  <!-- Mouth -->
  <rect x="26" y="40" width="12" height="6" fill="#202030"/>
  <rect x="28" y="42" width="3" height="2" fill="#ffffff"/>
  <rect x="33" y="42" width="3" height="2" fill="#ffffff"/>
  
  <!-- Arms -->
  <rect x="8" y="28" width="8" height="16" fill="#ff4a4a"/>
  <rect x="48" y="28" width="8" height="16" fill="#ff4a4a"/>
  
  <!-- Hands -->
  <rect x="6" y="42" width="6" height="6" fill="#ff5a5a"/>
  <rect x="52" y="42" width="6" height="6" fill="#ff5a5a"/>
  
  <!-- Cape -->
  <rect x="20" y="52" width="4" height="10" fill="#800040"/>
  <rect x="40" y="52" width="4" height="10" fill="#800040"/>
  
  <!-- Armor details -->
  <rect x="28" y="52" width="8" height="8" fill="#c0c0d0"/>
  <rect x="30" y="54" width="4" height="4" fill="#d0d0e0"/>
</svg>